<svg xmlns="http://www.w3.org/2000/svg" viewBox="0 0 243.01 50.9"><defs><style>.cls-1{fill:#8ebf47;}.cls-2{fill:#fff;}</style></defs><g id="Livello_2" data-name="Livello 2"><g id="Livello_3" data-name="Livello 3"><polygon class="cls-1" points="200.76 11.6 200.76 11.6 206.56 5.8 200.76 11.6"/><polygon class="cls-1" points="231.41 42.25 237.21 36.45 231.41 42.25 231.41 42.25"/><polygon class="cls-1" points="243.01 30.65 243.01 4.3 231.41 15.9 231.41 42.25 243.01 30.65"/><polygon class="cls-1" points="243.01 30.65 243.01 30.65 237.21 36.45 243.01 30.65"/><polygon class="cls-1" points="200.76 11.6 227.11 11.6 238.71 0 212.36 0 200.76 11.6"/><path class="cls-2" d="M20.57,41.2h-.05c-1.08-4.47-5.37-16-9.47-27.51H0V50.18H6.94V36.4c0-6.2-.28-13.49-.57-17.71h0c2,6.54,6.79,20.22,10.32,31.49h6.73c4.59-13.13,9-25.17,10.76-31.51h.05c-.2,4-.24,10.51-.24,17V50.18h7.41V13.69H30.33C26.43,24.65,22.18,35.84,20.57,41.2Z"/><polygon class="cls-2" points="57.87 13.69 50.22 13.69 50.22 50.18 72.58 50.18 78.8 43.95 57.87 43.95 57.87 13.69"/><path class="cls-2" d="M108.64,45.3c-4.83,0-7.06-3.77-7.06-8.45s2.35-8.34,7.08-8.34c4.06,0,5.6,2.27,6.23,4h7.31c-.4-3.12-3.56-9.6-13.57-9.6-9.38,0-14.5,6.68-14.5,14,0,7.59,4.51,14,14.47,14,8.33,0,12.6-4.52,13.74-9.47H115C113.88,43.92,112.06,45.3,108.64,45.3Z"/><path class="cls-2" d="M152.77,42.46V23.66h-7.31V35.83c0,6.59-1.8,9.28-6.39,9.28-3.89,0-5.27-2.73-5.27-6.41v-15h-7.31V39.94c0,7.78,4.35,11,9.91,11s7.77-1.88,9.1-4.26c0,1.39.07,2.82.17,3.54h7.12C152.74,47.61,152.77,45,152.77,42.46Z"/><path class="cls-2" d="M175.57,22.94c-5.24,0-7.8,2.24-9.13,4V11.6h-7.31V41.25c0,3,0,5.24,0,8.93h7c.07-.72.1-2.47.12-3.35,1.28,2,3.62,4.07,8.9,4.07,7.49,0,13.33-5.45,13.33-14.48C188.42,28.58,182.83,22.94,175.57,22.94Zm-2,22.11c-4.72,0-7.36-3.38-7.36-8.16s2.33-8.17,7.42-8.17,7.25,4,7.25,8C180.9,41.25,178.62,45.05,173.59,45.05Z"/><path class="cls-2" d="M198.38,40.16a8.39,8.39,0,0,0,7.7,5.21c3.47.06,5.22-1.2,6.33-3.12h7.31c-1.54,4.46-5.46,8.65-13.78,8.65-10.43,0-14.48-7.12-14.48-13.93,0-7.64,5.12-14,14.39-14,10.24,0,14.21,7.19,14.21,14,0,.6,0,1,0,1.78H198.45l4.63-4.63h9.52c-.19-2.38-1.46-5.87-6.76-5.87a7.62,7.62,0,0,0-7.42,5.76A11,11,0,0,0,198.38,40.16Z"/><path class="cls-2" d="M198.45,38.68l4.63-4.63Z"/></g></g></svg>